{
	"asset":{
		"generator":"Khronos glTF Blender I/O v3.6.28",
		"version":"2.0"
	},
	"scene":0,
	"scenes":[
		{
			"extras":{
				"vs":{}
			},
			"name":"Scene",
			"nodes":[
				0
			]
		}
	],
	"nodes":[
		{
			"mesh":0,
			"name":"Puck",
			"rotation":[
				0.7071068286895752,
				0,
				0,
				0.7071068286895752
			]
		}
	],
	"materials":[
		{
			"alphaMode":"BLEND",
			"doubleSided":true,
			"extras":{
				"mmd_material":{
					"specular_color":[
						1.0,
						1.0,
						1.0
					],
					"ambient_color":[
						1.0,
						1.0,
						1.0
					],
					"diffuse_color":[
						1.0,
						0.371825248003006,
						0.0
					],
					"alpha":1.0,
					"shininess":0.0
				},
				"sub_matl_data":{}
			},
			"name":"pasted__lambert2SG",
			"pbrMetallicRoughness":{
				"baseColorFactor":[
					1,
					0.31409043073654175,
					0.02524385415017605,
					1
				],
				"metallicFactor":0,
				"roughnessFactor":0
			}
		},
		{
			"alphaMode":"BLEND",
			"doubleSided":true,
			"extras":{
				"mmd_material":{},
				"sub_matl_data":{}
			},
			"name":"lambert2SG",
			"pbrMetallicRoughness":{
				"baseColorFactor":[
					1,
					1,
					1,
					1
				],
				"metallicFactor":0,
				"roughnessFactor":0
			}
		}
	],
	"meshes":[
		{
			"name":"Puck",
			"primitives":[
				{
					"attributes":{
						"POSITION":0,
						"NORMAL":1,
						"TEXCOORD_0":2,
						"TANGENT":3
					},
					"indices":4,
					"material":0
				},
				{
					"attributes":{
						"POSITION":5,
						"NORMAL":6,
						"TEXCOORD_0":7,
						"TANGENT":8
					},
					"indices":9,
					"material":1
				}
			]
		}
	],
	"accessors":[
		{
			"bufferView":0,
			"componentType":5126,
			"count":967,
			"max":[
				7.893044948577881,
				7.893044948577881,
				0.8664339780807495
			],
			"min":[
				-7.893045902252197,
				-7.89304780960083,
				-5.272128105163574
			],
			"type":"VEC3"
		},
		{
			"bufferView":1,
			"componentType":5126,
			"count":967,
			"type":"VEC3"
		},
		{
			"bufferView":2,
			"componentType":5126,
			"count":967,
			"type":"VEC2"
		},
		{
			"bufferView":3,
			"componentType":5126,
			"count":967,
			"type":"VEC4"
		},
		{
			"bufferView":4,
			"componentType":5123,
			"count":4800,
			"type":"SCALAR"
		},
		{
			"bufferView":5,
			"componentType":5126,
			"count":1296,
			"max":[
				9.511228561401367,
				9.511228561401367,
				0.9244499802589417
			],
			"min":[
				-9.51123046875,
				-9.511232376098633,
				-5.62407922744751
			],
			"type":"VEC3"
		},
		{
			"bufferView":6,
			"componentType":5126,
			"count":1296,
			"type":"VEC3"
		},
		{
			"bufferView":7,
			"componentType":5126,
			"count":1296,
			"type":"VEC2"
		},
		{
			"bufferView":8,
			"componentType":5126,
			"count":1296,
			"type":"VEC4"
		},
		{
			"bufferView":9,
			"componentType":5123,
			"count":6528,
			"type":"SCALAR"
		}
	],
	"bufferViews":[
		{
			"buffer":0,
			"byteLength":11604,
			"byteOffset":0,
			"target":34962
		},
		{
			"buffer":0,
			"byteLength":11604,
			"byteOffset":11604,
			"target":34962
		},
		{
			"buffer":0,
			"byteLength":7736,
			"byteOffset":23208,
			"target":34962
		},
		{
			"buffer":0,
			"byteLength":15472,
			"byteOffset":30944,
			"target":34962
		},
		{
			"buffer":0,
			"byteLength":9600,
			"byteOffset":46416,
			"target":34963
		},
		{
			"buffer":0,
			"byteLength":15552,
			"byteOffset":56016,
			"target":34962
		},
		{
			"buffer":0,
			"byteLength":15552,
			"byteOffset":71568,
			"target":34962
		},
		{
			"buffer":0,
			"byteLength":10368,
			"byteOffset":87120,
			"target":34962
		},
		{
			"buffer":0,
			"byteLength":20736,
			"byteOffset":97488,
			"target":34962
		},
		{
			"buffer":0,
			"byteLength":13056,
			"byteOffset":118224,
			"target":34963
		}
	],
	"buffers":[
		{
			"byteLength":131280,
			"uri":"data:application/octet-stream;base64,"
		}
	]
}
