{
	"asset":{
		"generator":"Khronos glTF Blender I/O v3.6.28",
		"version":"2.0"
	},
	"scene":0,
	"scenes":[
		{
			"name":"Scene",
			"nodes":[
				0
			]
		}
	],
	"nodes":[
		{
			"mesh":0,
			"name":"Puck",
			"rotation":[
				0.7071068286895752,
				0,
				0,
				0.7071068286895752
			]
		}
	],
	"materials":[
		{
			"alphaMode":"BLEND",
			"doubleSided":true,
			"name":"pasted__lambert2SG",
			"pbrMetallicRoughness":{
				"baseColorFactor":[
					1,
					0.31409043073654175,
					0.02524385415017605,
					1
				],
				"metallicFactor":0,
				"roughnessFactor":0
			}
		},
		{
			"alphaMode":"BLEND",
			"doubleSided":true,
			"name":"lambert2SG",
			"pbrMetallicRoughness":{
				"baseColorFactor":[
					1,
					1,
					1,
					1
				],
				"metallicFactor":0,
				"roughnessFactor":0
			}
		}
	],
	"meshes":[
		{
			"name":"Puck",
			"primitives":[
				{
					"attributes":{
						"POSITION":0,
						"NORMAL":1,
						"TEXCOORD_0":2
					},
					"indices":3,
					"material":0
				},
				{
					"attributes":{
						"POSITION":4,
						"NORMAL":5,
						"TEXCOORD_0":6
					},
					"indices":7,
					"material":1
				}
			]
		}
	],
	"accessors":[
		{
			"bufferView":0,
			"componentType":5126,
			"count":967,
			"max":[
				7.893044948577881,
				7.893044948577881,
				0.8664339780807495
			],
			"min":[
				-7.893045902252197,
				-7.89304780960083,
				-5.272128105163574
			],
			"type":"VEC3"
		},
		{
			"bufferView":1,
			"componentType":5126,
			"count":967,
			"type":"VEC3"
		},
		{
			"bufferView":2,
			"componentType":5126,
			"count":967,
			"type":"VEC2"
		},
		{
			"bufferView":3,
			"componentType":5123,
			"count":4800,
			"type":"SCALAR"
		},
		{
			"bufferView":4,
			"componentType":5126,
			"count":1296,
			"max":[
				9.511228561401367,
				9.511228561401367,
				0.9244499802589417
			],
			"min":[
				-9.51123046875,
				-9.511232376098633,
				-5.62407922744751
			],
			"type":"VEC3"
		},
		{
			"bufferView":5,
			"componentType":5126,
			"count":1296,
			"type":"VEC3"
		},
		{
			"bufferView":6,
			"componentType":5126,
			"count":1296,
			"type":"VEC2"
		},
		{
			"bufferView":7,
			"componentType":5123,
			"count":6528,
			"type":"SCALAR"
		}
	],
	"bufferViews":[
		{
			"buffer":0,
			"byteLength":11604,
			"byteOffset":0,
			"target":34962
		},
		{
			"buffer":0,
			"byteLength":11604,
			"byteOffset":11604,
			"target":34962
		},
		{
			"buffer":0,
			"byteLength":7736,
			"byteOffset":23208,
			"target":34962
		},
		{
			"buffer":0,
			"byteLength":9600,
			"byteOffset":30944,
			"target":34963
		},
		{
			"buffer":0,
			"byteLength":15552,
			"byteOffset":40544,
			"target":34962
		},
		{
			"buffer":0,
			"byteLength":15552,
			"byteOffset":56096,
			"target":34962
		},
		{
			"buffer":0,
			"byteLength":10368,
			"byteOffset":71648,
			"target":34962
		},
		{
			"buffer":0,
			"byteLength":13056,
			"byteOffset":82016,
			"target":34963
		}
	],
	"buffers":[
		{
			"byteLength":95072,
			"uri":"data:application/octet-stream;base64,"
		}
	]
}
